<svg id="af81c670-67a2-4beb-ad4c-06eb3ffa14db" data-name="Layer 1" xmlns="http://www.w3.org/2000/svg" viewBox="0 0 143.5386 56.15809"><path d="M96.57341,46.25129h3.65873a3.15709,3.15709,0,0,1,2.37231.69471,2.14685,2.14685,0,0,1,.78858,1.72022,2.23377,2.23377,0,0,1-.65019,1.62177,1.84273,1.84273,0,0,1-.888.49973,2.33691,2.33691,0,0,1,1.91435,2.42615,2.55415,2.55415,0,0,1-2.5246,2.66393c-.30464.01293-.70868.02692-1.23447.02692H96.57341Zm1.91435,1.6505v2.219H100.038a1.60961,1.60961,0,0,0,.83224-.1244,1.2535,1.2535,0,0,0,.49972-.9985,1.1063,1.1063,0,0,0-.55355-.97073,1.9622,1.9622,0,0,0-.80628-.12536Zm.02787,3.8129v2.6082h1.66077a1.52578,1.52578,0,0,0,.902-.221,1.45291,1.45291,0,0,0,.49972-1.12205,1.21973,1.21973,0,0,0-.70783-1.17969,1.9508,1.9508,0,0,0-.74959-.08541Z" transform="translate(-0.16169 -0.00943)" fill="#fff"/><path d="M113.70312,48.96906v.68082a2.65,2.65,0,0,1,.93068-.83224,1.65381,1.65381,0,0,1,.6112-.11052,1.44569,1.44569,0,0,1,.69385.15227l-.39016,1.56794a1.039,1.039,0,0,0-.54243-.13934,1.48588,1.48588,0,0,0-1.13784.59636v5.02037h-1.8567V48.96906Z" transform="translate(-0.16169 -0.00943)" fill="#fff"/><path d="M121.55738,54.01824l.719,1.109a4.06115,4.06115,0,0,1-2.676.98452c-2.037,0-3.35588-1.44154-3.35588-3.67442a3.89087,3.89087,0,0,1,.888-2.8163,2.79062,2.79062,0,0,1,2.23383-.95484,2.90927,2.90927,0,0,1,2.05274.74863,4.17749,4.17749,0,0,1,.94181,3.10612V52.95h-4.10632v.05574c0,1.09608.54148,1.72022,1.49908,1.72022A2.77777,2.77777,0,0,0,121.55738,54.01824Zm-3.275-2.4271h2.15023v-.08456a1.82369,1.82369,0,0,0-.222-1.06536.89745.89745,0,0,0-.8174-.417c-.70774,0-1.11083.55536-1.11083,1.53807Z" transform="translate(-0.16169 -0.00943)" fill="#fff"/><path d="M127.5809,55.901v-.49507a3.13845,3.13845,0,0,1-.42906.37427,2.46482,2.46482,0,0,1-1.42955.3873c-1.58183,0-2.43908-.80247-2.43908-2.218,0-1.66448,1.14992-2.44289,3.40971-2.44289.13839,0,.222,0,.41527.01494v-.29171c0-.78859-.15142-1.05329-.83044-1.05329a3.92167,3.92167,0,0,0-2.05273.80437l-.78954-1.331a5.26733,5.26733,0,0,1,1.149-.58238,4.8105,4.8105,0,0,1,1.94316-.41612,2.17992,2.17992,0,0,1,2.28776,1.23352,3.60517,3.60517,0,0,1,.12631,1.27623l-.04185,2.3862v2.35739Zm-.49878-3.10326h-.08541c-1.2865,0-1.73049.23683-1.73049,1.0821a.84217.84217,0,0,0,.81741.92973,1.3467,1.3467,0,0,0,.97063-.48669Z" transform="translate(-0.16169 -0.00943)" fill="#fff"/><path d="M134.43581,55.901v-.49507a2.65589,2.65589,0,0,1-1.87355.67892,2.13793,2.13793,0,0,1-2.09353-1.15077,4.26926,4.26926,0,0,1-.15428-1.41462V48.96906h1.83264V53.187a2.58541,2.58541,0,0,0,.15238,1.16476.75041.75041,0,0,0,.65295.33251,1.36989,1.36989,0,0,0,1.149-.68091V48.96906h1.77595v6.932Z" transform="translate(-0.16169 -0.00943)" fill="#fff"/><path d="M21.77675,16.40762a9.72369,9.72369,0,0,0-5.63156-1.84653,7.47751,7.47751,0,0,0-5.98643,2.84084c-1.37,1.89114-1.98121,4.63582-1.98121,8.47059,0,4.49467.405,7.00347,1.47131,8.80169a7.43023,7.43023,0,0,0,6.79907,3.69115,9.58754,9.58754,0,0,0,5.32882-1.61055c.20249-.14125.45787-.32976.71145-.52018L25.33512,40.695a15.14729,15.14729,0,0,1-9.39338,2.78092c-4.87084,0-8.628-1.4676-11.51574-4.54394C1.58468,35.95139.16169,31.975.16169,27.14875a19.87234,19.87234,0,0,1,2.38525-10.22,15.32115,15.32115,0,0,1,13.4979-7.61981,15.7881,15.7881,0,0,1,8.46641,2.26037Z" transform="translate(-0.16169 -0.00943)" fill="#fff"/><path d="M44.64482,36.19288l2.43538,3.74784A13.75543,13.75543,0,0,1,38.04168,43.266c-6.88648,0-11.33654-4.87084-11.33654-12.413,0-4.308.89168-7.166,2.9992-9.50762a9.43124,9.43124,0,0,1,7.5422-3.231,9.80379,9.80379,0,0,1,6.931,2.52972c2.20235,2.24877,3.18316,5.47919,3.18316,10.49128v1.45085H33.49774v.18757c0,3.70057,1.82618,5.80714,5.05946,5.80714A9.3621,9.3621,0,0,0,44.64482,36.19288Zm-11.0532-8.19705h7.25885v-.28049a6.1892,6.1892,0,0,0-.74768-3.60526,3.04063,3.04063,0,0,0-2.76523-1.40588c-2.389,0-3.74594,1.8744-3.74594,5.20061Z" transform="translate(-0.16169 -0.00943)" fill="#fff"/><path d="M55.98774,18.33727l.59731,2.63378a21.4088,21.4088,0,0,1,2.76238-1.77918,9.87236,9.87236,0,0,1,4.30977-1.03056c2.67135,0,5.01018,1.40483,5.75882,3.46641a9.64853,9.64853,0,0,1,.46995,3.42V42.562H63.70361V26.96671c0-2.71692-.468-3.51292-2.10847-3.51292a7.31047,7.31047,0,0,0-4.35438,2.15537V42.562h-6.278V18.33727Z" transform="translate(-0.16169 -0.00943)" fill="#fff"/><path d="M56.58971,18.33727l-.00466,2.63378a21.4088,21.4088,0,0,1,2.76238-1.77918,9.87236,9.87236,0,0,1,4.30977-1.03056c2.67135,0,5.01018,1.40483,5.75882,3.46641a9.64853,9.64853,0,0,1,.46995,3.42V42.562H63.70361V26.96671c0-2.71692-.468-3.51292-2.10847-3.51292a7.31047,7.31047,0,0,0-4.35438,2.15537V42.562h-6.278V18.33727Z" transform="translate(-0.16169 -0.00943)" fill="#fff"/><path d="M89.45761,24.38961a12.7084,12.7084,0,0,0-5.90187-1.73087c-1.82978,0-3.04476.93582-3.04476,2.34064,0,1.21679.79609,1.8744,2.9974,2.43728l2.90447.74864c2.95.74778,3.93179,1.63851,4.77335,2.716a6.32942,6.32942,0,0,1,1.31152,4.07483c0,4.96463-4.11945,8.3363-10.25445,8.3363A21.06134,21.06134,0,0,1,72.8146,40.6866L74.795,35.95966c1.92176,1.17037,5.247,2.716,7.96107,2.716a2.93753,2.93753,0,0,0,3.18867-2.716c0-1.64032-1.17218-2.48274-3.70143-2.94994l-2.80879-.51646a8.47531,8.47531,0,0,1-4.40459-2.43632A7.25636,7.25636,0,0,1,73.672,25.749c0-4.68366,3.70238-7.82125,9.27259-7.82125a17.56827,17.56827,0,0,1,8.1961,2.06385Z" transform="translate(-0.16169 -0.00943)" fill="#fff"/><path d="M109.19456,42.55909l-.01493-2.6314a21.46124,21.46124,0,0,1-2.76047,1.77786,9.89766,9.89766,0,0,1-4.31073,1.03093c-2.6723,0-5.01294-1.40435-5.76253-3.46735a9.68607,9.68607,0,0,1-.46539-3.41714V18.334h6.18056V33.93023c0,2.71872.46719,3.51472,2.11027,3.51472a7.33636,7.33636,0,0,0,4.35533-2.15584V18.334H114.802v24.225Z" transform="translate(-0.16169 -0.00943)" fill="#fff"/><path d="M38.82932,2.52242V8.83156c0,3.48362-1.683,5.377-4.78258,5.377-3.09775,0-4.6888-1.98492-4.6888-5.41794V2.52242h-1.4267V.87648h4.82158V2.52242h-1.423V8.982c0,2.28728.93629,3.50863,2.7559,3.50863,1.8744,0,2.793-1.19024,2.793-3.37956V2.52242H35.44928V.87648h4.81044V2.52242h-1.4304" transform="translate(-0.16169 -0.00943)" fill="#fff"/><path d="M46.45787,14.00334V12.44567h1.1425V7.96537c0-1.87859-.601-2.41407-1.60969-2.41407a2.61143,2.61143,0,0,0-2.13824,1.21031v5.68406H45.008v1.55767H40.77714V12.44567h1.13965V5.71717H40.77714V4.1576h3.0753V5.17008a3.22821,3.22821,0,0,1,2.61941-1.21821c1.97836,0,3.06141,1.09932,3.06141,3.87881v4.615H50.698v1.55767H46.45787" transform="translate(-0.16169 -0.00943)" fill="#fff"/><path d="M53.7892,2.50843a1.25634,1.25634,0,0,1-1.26139-1.23809A1.24888,1.24888,0,1,1,53.7892,2.50843M51.80152,14.00334V12.44567h1.21489V5.71717H51.80152V4.1576H54.954v8.28807h1.214v1.55767Z" transform="translate(-0.16169 -0.00943)" fill="#fff"/><path d="M62.20634,13.76271" transform="translate(-0.16169 -0.00943)" fill="#fff"/><path d="M62.20634,13.76271a3.73367,3.73367,0,0,1-1.82142.44589c-1.29392,0-2.11408-.84622-2.11408-2.60962V5.71717H56.93707V4.1576h1.33377V1.34367L60.2.32663v3.831h2.21443V5.71717H60.2V11.4174c0,.91908.2434,1.18055.9168,1.18055a2.2192,2.2192,0,0,0,.59446-.08589Z" transform="translate(-0.16169 -0.00943)" fill="#fff"/><path d="M71.34054,9.7632H65.26043c.1458,1.7847.89168,2.79442,2.43727,2.79442a3.88346,3.88346,0,0,0,2.64063-.95864l.82672,1.31988a5.27771,5.27771,0,0,1-3.58167,1.28974c-2.41769,0-4.21875-1.85633-4.21875-5.117,0-3.341,1.66914-5.13973,4.09158-5.13973,2.66384,0,3.93636,2.272,3.93636,4.93448,0,.35344-.04.66921-.052.87685M67.34188,5.5513c-1.278,0-1.93565.93163-2.07033,2.67325h4.18812C69.351,6.76161,68.84106,5.5513,67.34188,5.5513" transform="translate(-0.16169 -0.00943)" fill="#fff"/><path d="M78.854,14.00334V12.96908a3.00128,3.00128,0,0,1-2.44108,1.23952c-2.1001,0-3.59918-1.5377-3.59918-5.28421,0-3.37309,1.64774-4.97252,3.5073-4.97252a3.268,3.268,0,0,1,2.533,1.16248V1.65489H77.68545V.10511h3.08471V12.44567h1.04406v1.55767H78.854m.0195-7.16421A2.90648,2.90648,0,0,0,76.71482,5.5513c-1.29383,0-1.97465,1.12119-1.97465,3.30994,0,2.73774.76718,3.75811,2.06852,3.75811.78944,0,1.31428-.3776,2.06482-1.25949Z" transform="translate(-0.16169 -0.00943)" fill="#fff"/><path d="M92.49952,14.2086A3.55585,3.55585,0,0,1,89.648,12.93655v1.06679H87.95749V9.9889H89.557c.46624,1.61008,1.29106,2.538,2.90628,2.538,1.43792,0,2.21442-.69433,2.21442-1.97236,0-1.14754-.35857-1.723-2.74478-2.402-2.60724-.72962-3.87976-1.57489-3.87976-3.92019A3.42749,3.42749,0,0,1,91.80567.66514a3.00837,3.00837,0,0,1,2.75591,1.27813V.87648h1.68864V4.88817H94.6545A2.622,2.622,0,0,0,91.93293,2.3533c-1.38855,0-1.892.71478-1.892,1.74438,0,1.08724.71335,1.69378,2.64814,2.23155,2.62484.75329,3.98,1.65849,3.98,4.00236,0,2.58727-1.71461,3.877-4.16958,3.877" transform="translate(-0.16169 -0.00943)" fill="#fff"/><path d="M110.02766,14.00334V12.93655a3.272,3.272,0,0,1-2.66013,1.27205c-1.698,0-3.15253-.86382-3.15253-3.27741,0-2.19674,1.553-3.231,3.63732-3.231a4.57966,4.57966,0,0,1,2.17534.47138V7.25249a1.56229,1.56229,0,0,0-1.78338-1.66677A4.56566,4.56566,0,0,0,105.807,6.202l-.70955-1.36906a5.81292,5.81292,0,0,1,3.26391-.881c2.07784,0,3.54354,1.06489,3.54354,3.30062v5.19318h1.07v1.55767h-2.94727m0-4.33117a4.37122,4.37122,0,0,0-2.17534-.43238,1.61224,1.61224,0,0,0-1.80287,1.63566c0,1.19957.549,1.7225,1.6719,1.7225a2.93934,2.93934,0,0,0,2.30631-1.23809Z" transform="translate(-0.16169 -0.00943)" fill="#fff"/><path d="M127.87813,9.7632h-6.082c.15418,1.7847.90558,2.79442,2.43633,2.79442a3.90469,3.90469,0,0,0,2.64909-.95864l.83034,1.31988a5.30959,5.30959,0,0,1-3.589,1.28974c-2.416,0-4.21885-1.85633-4.21885-5.117,0-3.341,1.6701-5.13973,4.08692-5.13973,2.66765,0,3.942,2.272,3.942,4.93448,0,.35344-.03995.66921-.05479.87685m-3.9958-4.2119c-1.27909,0-1.932.93163-2.064,2.67325h4.17889c-.10215-1.46294-.62052-2.67325-2.11493-2.67325" transform="translate(-0.16169 -0.00943)" fill="#fff"/><path d="M133.3323,14.14725a2.57324,2.57324,0,0,1-2.23107-.933v.78906h-1.50564V10.93119h1.33377c.59636,1.12481,1.201,1.68816,2.3258,1.68816a1.10287,1.10287,0,0,0,1.23819-1.149c0-.72638-.31673-1.13879-1.70443-1.53351-2.40009-.69708-3.21188-1.41414-3.21188-3.192a2.74694,2.74694,0,0,1,3.00387-2.74,2.67722,2.67722,0,0,1,2.06481.75044V4.1576h1.49908V7.2367h-1.33653c-.44028-1.12623-1.04777-1.72906-2.11779-1.72906-.81921,0-1.1991.42782-1.1991,1.09,0,.59588.22656,1.02826,1.70624,1.4811,2.30906.71192,3.20636,1.3839,3.20636,3.24764a2.839,2.839,0,0,1-3.07168,2.82087" transform="translate(-0.16169 -0.00943)" fill="#fff"/><path d="M109.02545,55.901v-.49507a2.65324,2.65324,0,0,1-1.87069.67892,2.13523,2.13523,0,0,1-2.09354-1.15077,4.2214,4.2214,0,0,1-.15417-1.41462V48.96906h1.82978V53.187a2.56448,2.56448,0,0,0,.15419,1.16476.74524.74524,0,0,0,.652.33251,1.37317,1.37317,0,0,0,1.15087-.68091V48.96906h1.776v6.932Z" transform="translate(-0.16169 -0.00943)" fill="#fff"/><path d="M134.42458,24.38961A12.71459,12.71459,0,0,0,128.52,22.65874c-1.82884,0-3.04562.93582-3.04562,2.34064,0,1.21679.797,1.8744,2.99921,2.43728l2.90542.74864c2.94908.74778,3.93274,1.63851,4.77421,2.716a6.344,6.344,0,0,1,1.30971,4.07483c0,4.96463-4.1185,8.3363-10.25444,8.3363a21.05518,21.05518,0,0,1-9.42867-2.62579l1.9812-4.72694c1.92186,1.17037,5.24521,2.716,7.962,2.716a2.93691,2.93691,0,0,0,3.18686-2.716c0-1.64032-1.17217-2.48274-3.70142-2.94994l-2.8107-.51646a8.48817,8.48817,0,0,1-4.40269-2.43632,7.26284,7.26284,0,0,1-1.35793-4.308c0-4.68366,3.70142-7.82125,9.27449-7.82125a17.55215,17.55215,0,0,1,8.19239,2.06385Z" transform="translate(-0.16169 -0.00943)" fill="#fff"/><path d="M3.77771,49.46688H89.153a3.21892,3.21892,0,1,1,0,6.43784H3.77771a3.21892,3.21892,0,1,1,0-6.43784Z" transform="translate(-0.16169 -0.00943)" fill="#fff"/><path d="M103.01962,13.76271a3.73229,3.73229,0,0,1-1.82237.44589c-1.29116,0-2.11218-.84622-2.11218-2.60962V5.71717H97.75025V4.1576h1.33482V1.34367l1.92823-1.017v3.831h2.21433V5.71717H101.0133V11.4174c0,.91908.24244,1.18055.9186,1.18055a2.19894,2.19894,0,0,0,.5917-.08589Z" transform="translate(-0.16169 -0.00943)" fill="#fff"/><path d="M118.72443,13.76271a3.72986,3.72986,0,0,1-1.82056.44589c-1.29382,0-2.113-.84622-2.113-2.60962V5.71717H113.456V4.1576h1.33482V1.34367l1.92824-1.017v3.831h2.21337V5.71717h-2.21337V11.4174c0,.91908.24339,1.18055.91679,1.18055a2.21479,2.21479,0,0,0,.59446-.08589Z" transform="translate(-0.16169 -0.00943)" fill="#fff"/><path d="M140.8554,1.92262a2.89055,2.89055,0,0,1,1.39072.36452,2.67039,2.67039,0,0,1,1.06441,1.04563,2.851,2.851,0,0,1,.38977,1.43993,2.75313,2.75313,0,0,1-.83133,2.01357,2.84481,2.84481,0,0,1-4.02973,0,2.74547,2.74547,0,0,1-.83392-2.01357,2.82441,2.82441,0,0,1,.38847-1.438A2.72691,2.72691,0,0,1,139.45043,2.293,2.86047,2.86047,0,0,1,140.8554,1.92262Zm0,.472a2.40347,2.40347,0,0,0-1.15894.3043,2.24717,2.24717,0,0,0-.89089.87147,2.36372,2.36372,0,0,0-.32891,1.20232,2.28944,2.28944,0,0,0,.69666,1.68014,2.37279,2.37279,0,0,0,3.36157,0A2.29709,2.29709,0,0,0,143.229,4.7727,2.29124,2.29124,0,0,0,142.531,3.09,2.29144,2.29144,0,0,0,140.8554,2.39461Zm-1.24958,3.952V3.2855h1.05275a3.17432,3.17432,0,0,1,.70573.06022.78063.78063,0,0,1,.426.27581.74938.74938,0,0,1,.1774.494.82659.82659,0,0,1-.237.57947.9361.9361,0,0,1-.63838.28552q.28358.07866.71349.76982l.37422.5963h-.60471l-.27193-.483a2.85821,2.85821,0,0,0-.47135-.67982.66439.66439,0,0,0-.44156-.136h-.29006V6.34665Zm.49465-1.72157h.59825c.49465,0,.74068-.15539.74068-.46746a.37611.37611,0,0,0-.17611-.35351,1.2738,1.2738,0,0,0-.60213-.10359h-.56069Z" transform="translate(-0.16169 -0.00943)" fill="#fff"/></svg>